<?xml version="1.0" encoding="UTF-8"?>
<svg id="Layer_2" data-name="Layer 2" xmlns="http://www.w3.org/2000/svg" viewBox="0 0 69.9 58.66">
  <defs>
    <style>
      .cls-1 {
        fill: #f3f1ee;
      }
    </style>
  </defs>
  <g id="Layer_1-2" data-name="Layer 1">
    <g>
      <path class="cls-1" d="M26.22,44.88c3.94,.35,7.46,1.2,9.43,4.87,.53,.99,1.19,2.13,.21,3.23-1,1.11-2.05,.52-3.15,.05-7.76-3.29-7.79-3.29-12.08,3.84-.78,1.29-1.72,2.06-3.21,1.71-1.82-.42-2.12-1.88-2.11-3.48,.04-4.94,5.79-10.23,10.92-10.22Z"/>
      <path class="cls-1" d="M28.8,29.81c.3-2.24,.82-5.03,3.11-7.03,1.06-.92,2.31-1.42,3.62-.39,1.14,.91,.97,2.07,.37,3.15-2.91,5.26-1.92,9.21,3.75,11.74,1.53,.68,2.27,1.96,1.73,3.68-.64,2.05-2.36,1.54-3.75,1.32-4.9-.8-8.94-6.29-8.83-12.46Z"/>
      <path class="cls-1" d="M6.36,53.07c-1.09-1.89-.06-3.11,.52-4.46,2.19-5.09,1.42-7.47-3.04-10.46-1.93-1.3-5.29-2.51-3.15-5.47,1.75-2.42,4.56-.95,6.67,.52,5.55,3.87,7.01,12.17,3.2,17.73-.99,1.44-2.08,2.61-4.2,2.14Z"/>
      <path class="cls-1" d="M14.77,29.73c-1.88,.08-3.62-.34-5.18-1.42-1.69-1.17-2.51-2.8-1.59-4.71,.93-1.93,2.79-1.67,4.31-.89,3.57,1.83,6.02,1.55,6.86-2.92,.22-1.16,.68-2.38,2.23-2.06,1.57,.32,1.95,1.63,2.09,3.01,.43,4.45-3.88,8.89-8.71,8.97Z"/>
      <path class="cls-1" d="M66.23,25.97c-1.65,.83-2.46,.21-3.32-.3-3.38-2-5.98-1.61-7.34,2.45-.4,1.21-1.08,2.2-2.46,1.92-1.39-.27-1.72-1.5-1.53-2.73,.62-3.89,3.02-6.35,6.82-6.74,3.77-.39,7.26,.45,7.82,5.39Z"/>
      <path class="cls-1" d="M65.94,4.55c-1.59,4.81-1.64,8.61,3.3,11.19,1.21,.63,.67,2.83-1.07,2.78-4.02-.14-6.26-2.76-6.92-6.52-.62-3.53-.13-6.74,4.69-7.44Z"/>
      <path class="cls-1" d="M45.83,26.04c-1.18-.98-.86-1.81-.48-2.52,1.9-3.57,1.16-6.27-2.45-8.24-1.28-.7-2.88-1.75-1.75-3.45,1.23-1.84,2.94-.8,4.36,.06,5.3,3.2,5.49,10.6,.32,14.16Z"/>
      <path class="cls-1" d="M54.83,0c3.69,4.33,2.11,6.69-.39,8.55-2.55,1.89-5.33,1.61-7.67-.57-.65-.61-1.05-1.73-.34-2.73,.55-.76,1.46-1.09,2.19-.69,3.72,2.05,5.54,.35,6.22-4.56Z"/>
    </g>
  </g>
</svg>